P3
# CREATOR: GIMP PNM Filter Version 1.1
8 8
255
17
17
17
28
28
28
255
255
229
53
51
46
17
17
17
250
250
234
28
28
28
17
17
17
252
252
205
32
32
31
51
50
48
255
246
6
252
244
27
32
32
31
28
28
28
252
252
205
17
17
17
28
28
28
255
223
6
245
220
47
248
218
17
255
223
6
51
50
48
28
28
28
51
50
48
252
244
27
245
220
47
247
117
37
247
195
17
245
220
47
255
246
6
17
17
17
17
17
17
255
246
6
255
223
6
255
199
6
240
115
38
255
223
6
252
244
27
51
50
48
255
255
229
28
28
28
248
218
17
245
220
47
248
218
17
255
223
6
53
51
46
255
255
229
28
28
28
17
17
17
51
50
48
252
244
27
255
246
6
51
50
48
32
32
31
53
51
46
17
17
17
252
252
205
53
51
46
37
36
34
17
17
17
250
250
234
37
36
34
250
250
234
